<svg xmlns="http://www.w3.org/2000/svg" xml:space="preserve" version="1.1" viewBox="0 0 576 512"><!--! Font Awesome Pro 6.4.0 by @fontawesome - https://fontawesome.com License - https://fontawesome.com/license (Commercial License) Copyright 2023 Fonticons, Inc.--><path d="M499.9 0c-16.375 0-32.75 6.25-45.25 18.75h-.1l-220.3 220.4c-8.5 8.5-14.4 19.2-17.1 30.9l-20.9 90.6c-1.2 5.4.4 11 4.3 14.9 3.9 3.9 9.5 5.5 14.9 4.3l90.6-20.9c11.7-2.7 22.4-8.6 30.9-17.1l220.3-220.4c25-25 25-65.5 0-90.5l-12.1-12.2C532.65 6.25 516.275 0 499.9 0zM288.037.025A16.193 16.193 0 0 0 277.4 4L5.4 244c-6.6 5.8-7.3 16-1.4 22.6 5.9 6.6 16 7.3 22.6 1.4L64 235v197c0 44.2 35.8 80 80 80h288c44.2 0 80-35.8 80-80V235l37.4 33c6.6 5.8 16.7 5.2 22.6-1.4 5.9-6.6 5.2-16.7-1.4-22.6l-63.72-56.223L480 214.67V432c0 26.5-21.5 48-48 48h-64V326.72l-32 32.014V480h-96v-59.584l-32 7.383V480h-64c-26.5 0-48-21.5-48-48V206.7L288 37.3l71.02 62.66 22.652-22.66L298.6 4c-3-2.65-6.775-3.975-10.563-3.975zm211.764 32.05c8.2 0 16.398 3.124 22.648 9.374l12.102 12.102c12.5 12.5 12.5 32.799 0 45.299l-26.701 26.7-57.4-57.4 26.7-26.7c6.25-6.25 14.45-9.376 22.65-9.376zM427.85 90.75l57.4 57.4-171 171c-4.2 4.2-9.6 7.2-15.4 8.6l-65.6 15.1 15.1-65.7c1.3-5.8 4.3-11.2 8.6-15.4h-.1l171-171z"/></svg>