<svg xmlns="http://www.w3.org/2000/svg" viewBox="0 0 108 108" fill="#000000" version="1.1"><path fill="" fill-opacity="1" d="M90.746 16.5a62.676 62.676 0 0 0-32.443 9.17c-2.455 1.496-5.62 1.163-8-.447a23.742 23.742 0 0 0-11.526-4.01c-13.149-1.008-24.625 8.85-25.634 22.017a23.864 23.864 0 0 0 6.216 18c1.83 1.996 2.622 4.846 1.782 7.42a47.523 47.523 0 0 0-2.01 9.237C28.368 86.34 40.67 91.5 54.178 91.5c15.178 0 28.833-6.513 38.328-16.895-4.448-15.58-15.68-27.231-28.82-31.013-1.728-.498-3.03-1.973-3.42-3.729-.34-1.539.037-3.171 1.216-4.218 9.393-8.348 20.663-14.581 33.041-18.008.586-.163.519-1.01-.09-1.043a63.952 63.952 0 0 0-3.687-.094zM41.984 34.297a2.9 2.9 0 0 1 2.9 2.898 2.9 2.9 0 0 1-2.9 2.9 2.9 2.9 0 0 1-2.9-2.9 2.9 2.9 0 0 1 2.9-2.898z"/></svg>