<?xml version="1.0" encoding="UTF-8" standalone="no"?>
<svg
   viewBox="0 0 108 108"
   fill="#000000"
   version="1.1"
   id="svg184"
   sodipodi:docname="kiwi-bird.svg"
   inkscape:version="1.2.2 (b0a8486, 2022-12-01)"
   xmlns:inkscape="http://www.inkscape.org/namespaces/inkscape"
   xmlns:sodipodi="http://sodipodi.sourceforge.net/DTD/sodipodi-0.dtd"
   xmlns="http://www.w3.org/2000/svg"
   xmlns:svg="http://www.w3.org/2000/svg">
  <defs
     id="defs188" />
  <sodipodi:namedview
     id="namedview186"
     pagecolor="#ffffff"
     bordercolor="#666666"
     borderopacity="1.0"
     inkscape:showpageshadow="2"
     inkscape:pageopacity="0.0"
     inkscape:pagecheckerboard="0"
     inkscape:deskcolor="#d1d1d1"
     showgrid="false"
     inkscape:zoom="2.1851852"
     inkscape:cx="42.788136"
     inkscape:cy="54.228814"
     inkscape:window-width="1792"
     inkscape:window-height="993"
     inkscape:window-x="0"
     inkscape:window-y="25"
     inkscape:window-maximized="1"
     inkscape:current-layer="svg184" />
  <path
     fill=""
     fill-opacity="1"
     d="M 102.48233,4.5239762 A 82.692645,82.692645 0 0 0 59.678113,16.622571 C 56.439067,18.596343 52.26327,18.156994 49.123176,16.032814 A 31.324411,31.324411 0 0 0 33.916153,10.742152 C 16.567797,9.4122312 1.426741,22.41855 0.09550005,39.790654 A 31.485374,31.485374 0 0 0 8.296686,63.53926 c 2.414441,2.633457 3.45938,6.393652 2.351112,9.789703 A 62.700276,62.700276 0 0 0 7.995869,85.515956 c 12.186993,11.152613 28.417846,17.960544 46.239854,17.960544 20.025352,0 38.04131,-8.593041 50.568697,-22.290706 C 98.935873,60.630057 84.116747,45.258111 66.780265,40.268266 64.500399,39.61122 62.782583,37.665155 62.26803,35.348346 c -0.448585,-2.030505 0.04882,-4.183713 1.60435,-5.56509 12.392814,-11.014076 27.262083,-19.23769 43.5932,-23.7591598 0.77315,-0.215056 0.68475,-1.33256 -0.11875,-1.3761 a 84.376156,84.376156 0 0 0 -4.8645,-0.124022 z M 38.147363,28.004749 a 3.8261642,3.8261642 0 0 1 3.826164,3.823527 3.8261642,3.8261642 0 0 1 -3.826164,3.826164 3.8261642,3.8261642 0 0 1 -3.826164,-3.826164 3.8261642,3.8261642 0 0 1 3.826164,-3.823527 z"
     id="path182"
     style="stroke-width:1" />
</svg>
