<svg xmlns="http://www.w3.org/2000/svg" xml:space="preserve" version="1.1" viewBox="0 0 640 512"><!--! Font Awesome Pro 6.4.0 by @fontawesome - https://fontawesome.com License - https://fontawesome.com/license (Commercial License) Copyright 2023 Fonticons, Inc.--><path d="M64 0C28.7 0 0 28.7 0 64v192c0 35.3 28.7 64 64 64h32v48c0 6.1 3.3 11.6 8.8 14.3 5.5 2.7 12 2.1 16.8-1.5l81.1-60.8H352c35.3 0 64-28.7 64-64V64c0-35.3-28.7-64-64-64H64zm0 32h288c17.7 0 32 14.3 32 32v192c0 17.7-14.3 32-32 32H202.7c-6.9 0-13.7 2.2-19.2 6.4L128 336v-16c0-17.7-14.3-32-32-32H64c-17.7 0-32-14.3-32-32V64c0-17.7 14.3-32 32-32zm140.475 28.203c-6.5 0-12.4 4-14.9 10.1l-64 160c-3.3 8.2.7 17.5 8.9 20.8 8.2 3.3 17.5-.7 20.8-8.9l8.8-21.9h80.7l8.8 21.9c3.3 8.2 12.6 12.2 20.8 8.9 8.2-3.3 12.2-12.6 8.9-20.8l-64-160h.1c-2.5-6.1-8.4-10.1-14.9-10.1zm0 59.1 27.6 68.9h-55.2l27.6-68.9zM448 128v32h128c17.7 0 32 14.3 32 32v28.463a15.88 15.88 0 0 0-2.982-.291h-64v-15.9c0-8.8-7.2-16-16-16s-16 7.2-16 16v16h-64c-8.8 0-16 7.2-16 16s7.2 16 16 16h121.199l-.2.6c-8.2 22.6-21.4 42.9-38.2 59.4l-.8-.801-22.601-22.6c-6.2-6.2-16.4-6.2-22.6 0-6.2 6.2-6.2 16.4 0 22.6l20.9 20.9c-5 3.2-10.1 6.2-15.5 8.8l-17.3 8.6c-7.9 4-11.1 13.6-7.2 21.5 3.9 7.9 13.6 11.1 21.5 7.2l17.302-8.6c9.1-4.6 17.8-9.8 26-15.7 5.9 4.4 12.098 8.601 18.398 12.401l18.9 11.3c7.6 4.5 17.4 2.1 21.9-5.5s2.1-17.401-5.5-21.901l-18.9-11.3c-3.4-2-6.7-4.1-9.9-6.4 19.1-19.4 34.102-42.9 43.602-69l4.199-11.6h4.8c1.02 0 2.015-.105 2.983-.29V384c0 17.7-14.3 32-32 32h-32c-17.7 0-32 14.3-32 32v16l-55.5-41.6c-5.5-4.2-12.3-6.4-19.2-6.4H320c-17.7 0-32-14.3-32-32v-32h-32v32c0 35.3 28.7 64 64 64h117.3l81.1 60.8c4.9 3.6 11.4 4.2 16.8 1.5s8.8-8.2 8.8-14.3v-48h32c35.3 0 64-28.7 64-64V192c0-35.3-28.7-64-64-64H448z"/></svg>