<svg xmlns="http://www.w3.org/2000/svg" xml:space="preserve" version="1.1" viewBox="0 0 448 512"><!--! Font Awesome Pro 6.4.0 by @fontawesome - https://fontawesome.com License - https://fontawesome.com/license (Commercial License) Copyright 2023 Fonticons, Inc.--><path d="M16 48C7.2 48 0 55.2 0 64s7.2 16 16 16h416c8.8 0 16-7.2 16-16s-7.2-16-16-16H16zm64.057 111.922c-6.6 0-12.499 4-14.899 10.1l-64 160c-3.3 8.2.699 17.498 8.899 20.798 8.2 3.3 17.5-.698 20.8-8.898l8.801-21.9h80.799l8.8 22c3.3 8.2 12.6 12.2 20.8 8.9 8.2-3.3 12.2-12.6 8.9-20.8l-64-160c-2.5-6.1-8.4-10.1-14.9-10.1v-.1zM208 176c-8.8 0-16 7.2-16 16s7.2 16 16 16h224c8.8 0 16-7.2 16-16s-7.2-16-16-16H208zM80.057 219.121l27.5 68.9h-55.1l27.6-68.9zM208 304c-8.8 0-16 7.2-16 16s7.2 16 16 16h224c8.8 0 16-7.2 16-16s-7.2-16-16-16H208zM16 432c-8.8 0-16 7.2-16 16s7.2 16 16 16h416c8.8 0 16-7.2 16-16s-7.2-16-16-16H16z"/></svg>